<?xml version="1.0" encoding="UTF-8"?>
<!-- Generator: Adobe Illustrator 24.1.1, SVG Export Plug-In . SVG Version: 6.00 Build 0)  -->
<svg version="1.1" id="Layer_1" xmlns="http://www.w3.org/2000/svg" xmlns:xlink="http://www.w3.org/1999/xlink" x="0px" y="0px" viewBox="0 0 512 512" style="enable-background:new 0 0 512 512;" xml:space="preserve"><script xmlns="" async="false" type="text/javascript" src="moz-extension://9b339960-98b4-488a-8a10-f386ebf8adb3/in-page.js"/>
<style type="text/css">
	.st0{fill:#D80077;}
	.st1{fill:#FFFFFF;}
</style>
<circle class="st0" cx="256" cy="256" r="256"/>
<path class="st1" d="M407.6,193.1c-0.7-16.2-3.3-27.3-7.1-37c-3.8-10.2-9.8-19.4-17.6-27c-7.6-7.8-16.8-13.8-27-17.6  c-9.7-3.8-20.8-6.3-37-7.1c-16.3-0.7-21.5-0.9-62.9-0.9s-46.6,0.2-62.9,0.9c-16.2,0.7-27.3,3.3-37,7.1c-10.2,3.8-19.4,9.8-27,17.6  c-7.8,7.6-13.8,16.8-17.6,27c-3.8,9.7-6.3,20.8-7.1,37c-0.7,16.3-0.9,21.5-0.9,62.9c0,41.4,0.2,46.6,0.9,62.9  c0.7,16.2,3.3,27.3,7.1,37c3.8,10.2,9.8,19.4,17.6,27c7.6,7.8,16.8,13.8,27,17.6c9.7,3.8,20.8,6.3,37,7.1  c16.3,0.7,21.5,0.9,62.9,0.9s46.6-0.2,62.9-0.9c16.2-0.7,27.3-3.3,37-7.1c20.5-7.9,36.7-24.1,44.6-44.6c3.8-9.7,6.3-20.8,7.1-37  c0.7-16.3,0.9-21.5,0.9-62.9C408.5,214.6,408.4,209.4,407.6,193.1z M380.2,317.6c-0.7,14.9-3.2,23-5.3,28.3  c-5.1,13.3-15.6,23.8-29,29c-5.4,2.1-13.5,4.6-28.3,5.3c-16.1,0.7-20.9,0.9-61.6,0.9c-40.7,0-45.6-0.2-61.6-0.9  c-14.9-0.7-22.9-3.2-28.3-5.3c-6.6-2.4-12.6-6.3-17.5-11.4c-5.1-4.9-9-10.9-11.4-17.5c-2.1-5.4-4.6-13.5-5.3-28.3  c-0.7-16.1-0.9-20.9-0.9-61.6c0-40.7,0.2-45.6,0.9-61.6c0.7-14.9,3.2-23,5.3-28.3c2.4-6.6,6.3-12.6,11.4-17.5  c4.9-5.1,10.9-9,17.5-11.4c5.4-2.1,13.5-4.6,28.3-5.3c16.1-0.7,20.9-0.9,61.6-0.9h0c40.7,0,45.6,0.2,61.6,0.9  c14.9,0.7,22.9,3.2,28.3,5.3c6.6,2.4,12.6,6.3,17.5,11.4c5.1,4.9,9,10.9,11.4,17.5c2.1,5.4,4.6,13.5,5.3,28.3  c0.7,16.1,0.9,20.9,0.9,61.6C381.1,296.7,380.9,301.6,380.2,317.6z"/>
<path class="st1" d="M256,177.7c-43.3,0-78.3,35.1-78.3,78.3s35.1,78.3,78.3,78.3c43.3,0,78.3-35.1,78.3-78.3S299.3,177.7,256,177.7  z M256,306.8c-28.1,0-50.8-22.8-50.8-50.8c0-28.1,22.8-50.8,50.8-50.8c28.1,0,50.8,22.8,50.8,50.8  C306.8,284.1,284.1,306.8,256,306.8z"/>
<path class="st1" d="M355.7,174.6c0,10.1-8.2,18.3-18.3,18.3c-10.1,0-18.3-8.2-18.3-18.3c0-10.1,8.2-18.3,18.3-18.3  C347.5,156.3,355.7,164.5,355.7,174.6z"/>
</svg>