<?xml version="1.0" encoding="UTF-8"?>
<!-- Generator: Adobe Illustrator 24.1.1, SVG Export Plug-In . SVG Version: 6.00 Build 0)  -->
<svg version="1.1" id="Layer_1" xmlns="http://www.w3.org/2000/svg" xmlns:xlink="http://www.w3.org/1999/xlink" x="0px" y="0px" viewBox="0 0 500 500" style="enable-background:new 0 0 500 500;" xml:space="preserve"><script xmlns="" async="false" type="text/javascript" src="moz-extension://9b339960-98b4-488a-8a10-f386ebf8adb3/in-page.js"/>
<style type="text/css">
	.st0{fill:#34E0A1;}
</style>
<circle class="st0" cx="250" cy="250" r="250"/>
<g>
	<circle cx="166" cy="264" r="14"/>
	<path d="M166,222c-23.2,0-42,18.8-42,42s18.8,42,42,42s42-18.8,42-42S189.2,222,166,222z M166,292c-15.5,0-28-12.5-28-28   c0-15.5,12.5-28,28-28c15.5,0,28,12.5,28,28C194,279.5,181.5,292,166,292z"/>
	<path d="M334,222c-23.2,0-42,18.8-42,42s18.8,42,42,42s42-18.8,42-42S357.2,222,334,222z M334,292c-15.5,0-28-12.5-28-28   c0-15.5,12.5-28,28-28s28,12.5,28,28C362,279.5,349.5,292,334,292z M334,250c-7.7,0-14,6.3-14,14s6.3,14,14,14s14-6.3,14-14   S341.7,250,334,250z M334,222c-23.2,0-42,18.8-42,42s18.8,42,42,42s42-18.8,42-42S357.2,222,334,222z M334,292   c-15.5,0-28-12.5-28-28c0-15.5,12.5-28,28-28s28,12.5,28,28C362,279.5,349.5,292,334,292z M334,250c-7.7,0-14,6.3-14,14   s6.3,14,14,14s14-6.3,14-14S341.7,250,334,250z M418,180h-59.6c-33-18.3-70.7-28-108.4-28s-75.4,9.7-108.4,28H82   c0,0,11.2,23.2,14.6,36.7C87.4,230.2,82,246.5,82,264c0,46.3,37.7,84,84,84c25,0,47.4-11,62.8-28.4L250,348l21.2-28.4   C286.6,337,309,348,334,348c46.3,0,84-37.7,84-84c0-17.5-5.4-33.8-14.6-47.3C406.8,203.3,418,180,418,180z M166,334   c-38.7,0-70-31.3-70-70s31.3-70,70-70c38.7,0,70,31.3,70,70S204.7,334,166,334z M174,180.4c48.4-18.4,103.7-18.4,152.1,0   c-42.6,4-76,40-76,83.6C250,220.4,216.6,184.4,174,180.4z M404,264c0,38.7-31.3,70-70,70s-70-31.3-70-70s31.3-70,70-70   S404,225.3,404,264z M334,222c-23.2,0-42,18.8-42,42s18.8,42,42,42s42-18.8,42-42S357.2,222,334,222z M334,292   c-15.5,0-28-12.5-28-28c0-15.5,12.5-28,28-28s28,12.5,28,28C362,279.5,349.5,292,334,292z M334,250c-7.7,0-14,6.3-14,14   s6.3,14,14,14s14-6.3,14-14S341.7,250,334,250z"/>
	<circle cx="166" cy="264" r="14"/>
	<path d="M166,222c-23.2,0-42,18.8-42,42s18.8,42,42,42s42-18.8,42-42S189.2,222,166,222z M166,292c-15.5,0-28-12.5-28-28   c0-15.5,12.5-28,28-28c15.5,0,28,12.5,28,28C194,279.5,181.5,292,166,292z"/>
	<circle cx="334" cy="264" r="14"/>
	<path d="M334,222c-23.2,0-42,18.8-42,42s18.8,42,42,42s42-18.8,42-42S357.2,222,334,222z M334,292c-15.5,0-28-12.5-28-28   c0-15.5,12.5-28,28-28s28,12.5,28,28C362,279.5,349.5,292,334,292z"/>
	<circle cx="166" cy="264" r="14"/>
	<path d="M166,222c-23.2,0-42,18.8-42,42s18.8,42,42,42s42-18.8,42-42S189.2,222,166,222z M166,292c-15.5,0-28-12.5-28-28   c0-15.5,12.5-28,28-28c15.5,0,28,12.5,28,28C194,279.5,181.5,292,166,292z"/>
	<circle cx="166" cy="264" r="14"/>
	<circle cx="334" cy="264" r="14"/>
	<path d="M334,222c-23.2,0-42,18.8-42,42s18.8,42,42,42s42-18.8,42-42S357.2,222,334,222z M334,292c-15.5,0-28-12.5-28-28   c0-15.5,12.5-28,28-28s28,12.5,28,28C362,279.5,349.5,292,334,292z"/>
	<circle cx="334" cy="264" r="14"/>
	<circle cx="166" cy="264" r="14"/>
	<circle cx="334" cy="264" r="14"/>
</g>
</svg>