<?xml version="1.0" encoding="UTF-8"?>
<!-- Generator: Adobe Illustrator 24.1.1, SVG Export Plug-In . SVG Version: 6.00 Build 0)  -->
<svg version="1.1" id="Capa_1" xmlns="http://www.w3.org/2000/svg" xmlns:xlink="http://www.w3.org/1999/xlink" x="0px" y="0px" viewBox="0 0 500 500" style="enable-background:new 0 0 500 500;" xml:space="preserve"><script xmlns="" async="false" type="text/javascript" src="moz-extension://9b339960-98b4-488a-8a10-f386ebf8adb3/in-page.js"/>
<style type="text/css">
	.st0{fill:#A8AF3B;}
	.st1{fill:#FAFAFA;}
</style>
<circle class="st0" cx="249.9" cy="250" r="250"/>
<g>
	<path class="st1" d="M271.3,303.3c-4.6,0-8.7-2.9-10.1-7.3L250,262.4L238.8,296c-1.2,4.7-5.7,7.8-10.5,7.3   c-4.7-0.2-8.8-3.5-9.9-8.1L197,209.9c-1.4-5.7,2.1-11.5,7.8-12.9s11.5,2.1,12.9,7.8l12.4,49.8l9.7-29.2c2.5-5.6,9.1-8.1,14.7-5.5   c2.5,1.1,4.4,3.1,5.5,5.5l9.7,29.2l12.4-49.8c1.4-5.7,7.2-9.2,12.9-7.8c5.7,1.4,9.2,7.2,7.8,12.9l0,0l-21.3,85.3   c-1.2,4.6-5.2,7.9-9.9,8.1L271.3,303.3z"/>
	<path class="st1" d="M143.3,303.3c-4.6,0-8.7-2.9-10.1-7.3L122,262.4L110.8,296c-1.2,4.7-5.7,7.8-10.5,7.3   c-4.7-0.2-8.8-3.5-9.9-8.1L69,209.9c-1.4-5.7,2.1-11.5,7.8-12.9s11.5,2.1,12.9,7.8l12.4,49.8l9.7-29.2c2.5-5.6,9.1-8.1,14.7-5.5   c2.5,1.1,4.4,3.1,5.5,5.5l9.7,29.2l12.4-49.8c1.4-5.7,7.2-9.2,12.9-7.8s9.2,7.2,7.8,12.9l-21.3,85.3c-1.2,4.6-5.2,7.9-9.9,8.1   L143.3,303.3z"/>
	<path class="st1" d="M399.3,303.3c-4.6,0-8.7-2.9-10.1-7.3L378,262.4L366.8,296c-1.3,4.7-5.7,7.8-10.5,7.3   c-4.7-0.2-8.8-3.5-9.9-8.1L325,209.9c-1.4-5.7,2.1-11.5,7.8-12.9s11.5,2.1,12.9,7.8l12.4,49.8l9.7-29.2c2.5-5.6,9.1-8.1,14.7-5.5   c2.5,1.1,4.4,3.1,5.5,5.5l9.7,29.2l12.4-49.8c1.4-5.7,7.2-9.2,12.9-7.8c5.7,1.4,9.2,7.2,7.8,12.9l-21.3,85.3   c-1.2,4.6-5.2,7.9-9.9,8.1L399.3,303.3z"/>
</g>
</svg>